{"title":"Blood.and.Oil.S01E09.Art.of.the.Deal.1080p.WEB-DL.DD5.1.H264-NTb","uid":12953334,"size":1739682947,"categoryP":"video","categoryS":"hd___tv_shows","magnet":"?xt=urn:btih:68d65e3a75df8dd6d3613bab188dd2e9ddfd44be&amp;dn=Blood.and.Oil.S01E09.Art.of.the.Deal.1080p.WEB-DL.DD5.1.H264-NTb&amp;tr=udp%3A%2F%2Ftracker.leechers-paradise.org%3A6969&amp;tr=udp%3A%2F%2Fzer0day.ch%3A1337&amp;tr=udp%3A%2F%2Fopen.demonii.com%3A1337&amp;tr=udp%3A%2F%2Ftracker.coppersurfer.tk%3A6969&amp;tr=udp%3A%2F%2Fexodus.desync.com%3A6969","seeders":1,"leechers":0,"uploader":null,"files":3,"time":1449759506,"description":"Video\r\nID                                       : 1\r\nFormat                                   : AVC\r\nFormat/Info                              : Advanced Video Codec\r\nFormat profile                           :   \r\nFormat settings, CABAC                   : Yes\r\nFormat settings, ReFrames                : 4 frames\r\nCodec ID                                 : V_MPEG4/ISO/AVC\r\nDuration                                 : 42mn 18s\r\nBit rate                                 : 4 988 Kbps\r\nWidth                                    : 1 920 pixels\r\nHeight                                   : 1 080 pixels\r\nDisplay aspect ratio                     : 16:9\r\nFrame rate mode                          : Constant\r\nFrame rate                               : 23.976 fps\r\nColor space                              : YUV\r\nChroma subsampling                       : 4:2:0\r\nBit depth                                : 8 bits\r\nScan type                                : Progressive\r\nBits/(Pixel*Frame)                       : 0.100\r\nStream size                              : 1.47 GiB (91%)\r\nLanguage                                 : English\r\nDefault                                  : Yes\r\nForced                                   : No\r\nColor range                              : Limited\r\nColor primaries                          : BT.709\r\nTransfer characteristics                 : BT.709\r\nMatrix coefficients                      : BT.709\r\n\r\nAudio\r\nID                                       : 2\r\nFormat                                   : AC-3\r\nFormat/Info                              : Audio Coding 3\r\nMode extension                           : CM (complete main)\r\nFormat settings, Endianness              : Big\r\nCodec ID                                 : A_AC3\r\nDuration                                 : 42mn 18s\r\nBit rate mode                            : Constant\r\nBit rate                                 : 384 Kbps\r\nChannel(s)                               : 6 channels\r\nChannel positions                        : Front: L C R, Side: L R, LFE\r\nSampling rate                            : 48.0 KHz\r\nCompression mode                         : Lossy\r\nStream size                              : 116 MiB (7%)\r\nLanguage                                 : English\r\nDefault                                  : Yes\r\nForced                                   : No\r\n\r\nText\r\nID                                       : 3\r\nFormat                                   : UTF-8\r\nCodec ID                                 : S_TEXT/UTF8\r\nCodec ID/Info                            : UTF-8 Plain Text\r\nLanguage                                 : English\r\nDefault                                  : No\r\nForced                                   : No","torrent":{"xt":"urn:btih:68d65e3a75df8dd6d3613bab188dd2e9ddfd44be","amp;dn":"Blood.and.Oil.S01E09.Art.of.the.Deal.1080p.WEB-DL.DD5.1.H264-NTb","amp;tr":["udp%3A%2F%2Ftracker.leechers-paradise.org%3A6969","udp%3A%2F%2Fzer0day.ch%3A1337","udp%3A%2F%2Fopen.demonii.com%3A1337","udp%3A%2F%2Ftracker.coppersurfer.tk%3A6969","udp%3A%2F%2Fexodus.desync.com%3A6969"],"infoHash":"68d65e3a75df8dd6d3613bab188dd2e9ddfd44be","infoHashBuffer":{"type":"Buffer","data":[104,214,94,58,117,223,141,214,211,97,59,171,24,141,210,233,221,253,68,190]},"announce":[],"urlList":[]}}